<?xml version="1.0" standalone="no"?>
<!DOCTYPE svg PUBLIC "-//W3C//DTD SVG 20010904//EN"
 "http://www.w3.org/TR/2001/REC-SVG-20010904/DTD/svg10.dtd">
<svg version="1.0" xmlns="http://www.w3.org/2000/svg"
 width="1127.000000pt" height="221.000000pt" viewBox="0 0 1127.000000 221.000000"
 preserveAspectRatio="xMidYMid meet">
<g transform="translate(0.000000,221.000000) scale(0.100000,-0.100000)"
fill="#1E155A" stroke="none">
<path d="M7720 2159 c-220 -53 -235 -63 -214 -148 7 -29 16 -38 43 -47 50 -16
67 -44 80 -129 12 -81 13 -275 3 -365 l-7 -54 -128 3 -128 3 3 -58 c3 -54 5
-58 33 -68 92 -33 160 -104 196 -204 24 -66 24 -73 24 -382 l0 -315 -28 -53
c-52 -98 -106 -130 -225 -131 -114 -1 -169 35 -216 141 -46 103 -57 165 -63
338 -9 304 30 488 120 566 23 19 45 34 50 34 24 0 77 52 77 76 0 47 -31 64
-121 64 -102 0 -152 -12 -266 -66 -137 -63 -234 -163 -296 -304 -36 -82 -67
-232 -67 -325 0 -173 74 -386 177 -512 41 -50 132 -118 210 -157 50 -26 55
-26 270 -26 l219 0 73 35 c41 20 75 34 76 33 1 -2 12 -18 24 -36 l22 -32 162
0 c165 0 314 17 355 38 12 7 29 24 38 37 23 35 1 74 -51 92 -46 16 -57 31 -69
93 -4 25 -11 459 -15 965 l-6 920 -115 2 c-97 1 -135 -3 -240 -28z"/>
<path d="M136 2089 c-21 -16 -26 -29 -26 -63 0 -47 13 -66 47 -66 27 0 113
-38 113 -51 0 -4 15 -15 34 -24 19 -9 73 -61 120 -115 47 -54 92 -105 99 -112
7 -7 24 -29 37 -48 13 -19 47 -62 75 -96 27 -33 61 -75 75 -94 42 -56 74 -96
92 -114 10 -9 39 -45 65 -79 25 -34 70 -88 100 -119 29 -31 53 -61 53 -67 0
-6 33 -48 73 -93 40 -46 89 -105 107 -133 19 -27 44 -59 55 -70 12 -11 39 -42
60 -70 22 -27 43 -52 46 -55 3 -3 12 -15 21 -28 8 -12 33 -42 55 -65 22 -23
48 -55 59 -72 10 -16 28 -40 39 -51 29 -32 98 -114 114 -138 8 -12 18 -23 21
-26 3 -3 19 -23 36 -45 52 -71 108 -127 141 -141 19 -9 69 -14 123 -14 l90 0
0 263 c0 144 -4 278 -9 297 -4 19 -39 76 -76 125 -69 91 -82 107 -221 273 -44
52 -99 119 -123 150 -24 32 -71 89 -106 127 -34 39 -79 93 -99 120 -21 28 -55
68 -76 90 -20 22 -55 63 -76 91 -89 116 -244 306 -332 405 l-93 107 -172 6
c-541 18 -512 18 -541 -5z"/>
<path d="M1552 2082 c-25 -25 -30 -83 -9 -101 8 -6 29 -14 48 -18 56 -11 86
-27 144 -76 57 -50 125 -153 125 -190 0 -13 7 -32 15 -45 9 -12 22 -71 30
-134 26 -202 37 -225 100 -214 42 8 52 27 61 114 9 88 53 262 81 318 52 106
187 224 258 224 44 0 77 37 73 81 l-3 34 -80 7 c-44 3 -247 9 -451 14 l-371 7
-21 -21z"/>
<path d="M3112 1429 c-150 -26 -258 -94 -400 -253 -81 -91 -125 -200 -141
-348 -15 -132 -14 -193 5 -258 9 -30 19 -71 23 -90 5 -19 16 -48 25 -65 9 -16
16 -35 16 -42 0 -39 141 -201 210 -241 25 -14 49 -32 53 -39 4 -7 16 -13 26
-13 10 0 32 -7 49 -16 43 -21 145 -36 223 -32 l64 3 3 33 c4 43 -18 77 -67
102 -43 22 -74 64 -90 127 -22 82 -51 329 -51 433 0 165 42 432 82 515 5 11
37 34 71 50 57 28 62 33 65 66 5 63 -55 88 -166 68z"/>
<path d="M4963 1430 c-62 -13 -190 -82 -251 -136 -29 -26 -55 -44 -57 -42 -3
3 -8 39 -11 81 -4 45 -13 82 -20 88 -26 22 -209 -7 -435 -69 -82 -22 -96 -33
-104 -82 -8 -48 4 -72 51 -101 64 -39 64 -41 64 -515 l0 -426 -45 -42 c-51
-47 -67 -93 -40 -116 25 -21 655 -29 655 -9 0 35 -25 96 -51 129 -56 69 -61
108 -66 521 l-5 376 63 7 63 6 61 -59 c130 -128 273 -141 381 -34 115 115 90
334 -45 403 -45 23 -148 33 -208 20z"/>
<path d="M5720 1430 c-160 -29 -262 -105 -322 -239 -28 -60 -29 -71 -26 -165
3 -85 7 -110 31 -160 34 -74 167 -208 247 -250 30 -16 97 -54 149 -85 51 -31
108 -64 125 -74 51 -30 87 -69 107 -114 10 -24 23 -43 29 -43 5 0 10 -10 10
-23 0 -27 -55 -117 -71 -117 -23 0 -38 -36 -39 -87 l0 -53 33 0 c73 1 218 28
235 43 10 10 26 17 36 17 23 0 99 72 137 131 52 81 73 212 48 290 -43 132
-165 287 -255 325 -19 8 -34 18 -34 23 0 6 -65 48 -144 96 -107 63 -159 101
-200 146 -52 55 -56 64 -56 108 0 49 25 91 55 91 25 0 55 38 55 69 0 63 -55
89 -150 71z"/>
<path d="M5933 1433 c-34 -7 -44 -27 -41 -80 l3 -48 53 -8 c28 -5 52 -12 52
-17 0 -5 16 -14 34 -20 48 -16 143 -121 177 -196 35 -76 47 -86 115 -92 l54
-4 0 189 0 190 -57 26 c-95 41 -316 75 -390 60z"/>
<path d="M10175 1434 c-11 -3 -38 -9 -60 -14 -22 -5 -78 -18 -125 -29 -47 -10
-120 -27 -163 -37 -121 -27 -173 -93 -114 -144 12 -11 45 -40 72 -64 l50 -45
3 -427 4 -426 -46 -47 c-49 -50 -66 -85 -66 -133 l0 -31 268 7 c342 10 396 15
400 39 7 33 -7 62 -52 112 l-45 50 -1 464 0 464 20 -26 c30 -38 83 -46 120
-18 36 26 70 27 103 1 14 -11 34 -20 46 -20 59 0 71 -92 71 -529 l0 -354 -55
-58 c-56 -58 -68 -92 -39 -103 22 -9 369 -26 521 -26 l122 0 -6 58 c-3 31 -14
71 -24 87 -51 84 -52 88 -60 230 -4 77 -8 246 -9 375 0 243 -15 395 -43 462
-22 53 -100 132 -155 159 -43 21 -60 23 -204 23 -151 -1 -158 -2 -195 -26 -21
-14 -54 -35 -74 -47 -41 -24 -129 -114 -129 -132 0 -7 -2 -10 -5 -7 -3 3 -10
45 -16 93 -5 48 -14 96 -20 106 -9 19 -43 23 -94 13z"/>
<path d="M3310 1411 c-24 -46 2 -121 43 -121 15 0 80 -65 95 -95 21 -44 34
-283 30 -570 l-4 -290 -34 -79 c-31 -70 -39 -81 -67 -88 -41 -11 -73 -52 -73
-94 0 -50 21 -57 132 -44 192 23 317 92 425 235 152 200 192 464 109 709 -93
273 -328 456 -586 456 -48 0 -61 -4 -70 -19z"/>
<path d="M8782 1415 c-150 -37 -287 -139 -386 -289 -50 -74 -63 -107 -98 -241
-13 -50 -3 -310 14 -368 57 -197 242 -411 403 -468 63 -22 461 -19 536 4 112
35 236 139 302 252 51 89 54 110 18 145 -44 45 -90 38 -158 -23 -75 -68 -91
-72 -268 -72 l-160 0 -62 42 c-34 24 -64 52 -68 63 -4 11 -18 34 -33 52 -23
27 -27 41 -27 97 l0 66 45 7 c25 3 95 7 155 7 61 0 228 6 373 13 l262 12 0 85
c-1 155 -32 331 -58 331 -5 0 -14 16 -21 35 -13 37 -101 133 -164 179 -74 54
-182 86 -292 86 -83 0 -105 -13 -105 -61 0 -16 -4 -29 -10 -29 -5 0 -10 10
-10 23 0 12 -7 33 -16 45 -12 18 -24 22 -67 21 -29 -1 -76 -7 -105 -14z m296
-147 c21 -23 75 -148 87 -203 4 -16 13 -50 20 -75 23 -80 26 -120 8 -120 -9 0
-24 -7 -34 -16 -24 -22 -111 -28 -274 -19 l-138 7 6 77 c10 137 88 308 161
352 46 28 136 26 164 -3z"/>
<path d="M536 808 c-3 -13 -6 -43 -6 -68 -1 -50 -36 -203 -69 -295 -20 -57
-73 -145 -116 -191 -25 -27 -146 -84 -179 -84 -50 0 -56 -8 -56 -73 l0 -60
338 6 c185 4 399 7 475 7 l137 0 0 36 c0 51 -15 72 -63 85 -66 20 -172 92
-211 146 -19 26 -40 71 -47 98 -6 28 -17 61 -24 75 -7 14 -18 57 -24 95 -6 39
-16 101 -21 139 -16 99 -21 106 -79 106 -42 0 -49 -3 -55 -22z"/>
<path d="M5423 565 c-42 -18 -53 -59 -53 -206 0 -125 16 -204 49 -233 11 -10
59 -32 108 -51 72 -27 113 -35 223 -44 157 -14 190 -8 190 35 0 49 -35 82
-112 105 -114 35 -205 134 -273 298 -27 64 -44 92 -61 100 -31 14 -31 13 -71
-4z"/>
</g>
</svg>
