<?xml version="1.0" standalone="no"?>
<!DOCTYPE svg PUBLIC "-//W3C//DTD SVG 20010904//EN"
 "http://www.w3.org/TR/2001/REC-SVG-20010904/DTD/svg10.dtd">
<svg version="1.0" xmlns="http://www.w3.org/2000/svg"
 width="530.000000pt" height="471.000000pt" viewBox="0 0 530.000000 471.000000"
 preserveAspectRatio="xMidYMid meet">
<g transform="translate(0.000000,471.000000) scale(0.100000,-0.100000)"
fill="#1E155A" stroke="none">
<path d="M280 4543 c-42 -7 -85 -34 -108 -67 -18 -27 -22 -46 -22 -115 0 -77
2 -84 28 -110 19 -20 42 -30 77 -35 68 -10 151 -43 205 -83 25 -18 70 -50 100
-72 89 -64 165 -141 335 -336 33 -38 67 -76 75 -84 20 -22 100 -121 125 -155
11 -16 25 -33 30 -40 6 -6 32 -40 59 -76 27 -36 54 -69 60 -75 7 -5 34 -39 61
-75 27 -36 56 -72 64 -81 9 -9 23 -26 31 -39 24 -36 231 -292 324 -400 12 -14
43 -53 70 -88 26 -35 58 -74 70 -87 113 -122 154 -173 253 -311 23 -33 55 -73
70 -89 15 -17 59 -69 97 -115 38 -47 75 -90 82 -96 8 -6 14 -14 14 -18 0 -5
86 -122 100 -136 3 -3 25 -30 50 -60 25 -30 59 -71 77 -90 17 -19 73 -87 123
-150 51 -63 97 -116 101 -118 5 -2 9 -9 9 -14 0 -6 7 -18 15 -27 58 -59 222
-256 249 -299 13 -21 61 -80 107 -132 46 -52 104 -122 128 -155 25 -33 47 -62
51 -65 3 -3 33 -39 65 -80 32 -41 62 -77 65 -80 3 -3 28 -34 54 -68 74 -98
181 -198 239 -226 64 -30 188 -46 355 -46 l122 0 0 403 c0 221 -5 493 -10 605
-9 200 -10 204 -40 259 -73 133 -197 295 -537 705 -120 145 -236 286 -258 313
-22 28 -45 55 -51 60 -6 6 -38 46 -72 90 -33 44 -73 94 -89 110 -50 54 -187
217 -267 318 -43 54 -115 140 -159 190 -44 51 -195 236 -336 412 -140 176
-265 331 -277 345 -12 14 -51 59 -85 100 -34 41 -88 104 -119 140 -32 36 -91
103 -131 150 -39 47 -87 102 -106 123 l-33 37 -373 10 c-204 6 -478 14 -607
20 -236 10 -413 11 -460 3z"/>
<path d="M3209 4503 c-20 -22 -42 -57 -49 -78 -15 -46 -8 -131 13 -152 17 -17
147 -63 177 -63 18 0 123 -57 176 -95 58 -42 175 -168 221 -237 66 -102 82
-134 98 -204 8 -33 25 -85 38 -115 23 -53 45 -165 87 -449 23 -148 45 -217 82
-257 18 -19 32 -23 84 -23 56 0 67 4 97 30 37 32 46 61 72 235 21 144 51 291
81 392 15 48 30 102 34 118 35 139 127 286 253 408 132 127 235 190 330 202
65 8 111 35 144 84 19 28 23 48 23 106 l0 73 -67 6 c-171 16 -480 27 -968 36
-291 5 -611 12 -710 16 l-180 7 -36 -40z"/>
<path d="M1065 1820 c-21 -23 -33 -92 -34 -189 -1 -101 -74 -404 -143 -601
-46 -130 -184 -353 -263 -423 -11 -10 -78 -46 -150 -81 -100 -49 -147 -66
-203 -74 -40 -6 -84 -18 -98 -27 -23 -15 -24 -19 -24 -145 l0 -130 163 0 c89
0 338 5 552 10 215 5 596 12 848 16 l457 7 0 71 c-1 104 -23 146 -93 180 -31
14 -61 26 -68 26 -23 0 -183 92 -254 145 -169 128 -206 184 -293 455 -50 153
-64 215 -91 400 -34 223 -59 329 -87 357 -21 21 -32 23 -112 23 -77 0 -91 -3
-107 -20z"/>
</g>
</svg>
